<?xml version="1.0" encoding="UTF-8" standalone="no"?>
<svg width="1150" xmlns="http://www.w3.org/2000/svg" height="720">
 <rect id="svg_1" height="720" width="1150" y="0" x="0" fill="#008000"/>
 <g stroke="#fff">
  <g stroke-width="0" fill="#59b200">
   <rect id="svg_29" y="-1.0058" width="78" height="722.01" x="616"/>
   <rect id="svg_27" y="-1.0058" width="78" height="722.01" x="456"/>
  </g>
  <circle id="svg_3" r="91.5" fill-opacity="0" cy="360" cx="575" stroke-width="2"/>
  <g stroke-width="0" fill="#59b200">
   <rect id="svg_26" y="-1.0058" width="78" height="722.01" x="301"/>
   <rect id="svg_19" y="-.83781" width="78" height="722.01" x="-1"/>
   <rect id="svg_32" y="-1.0058" width="78" height="722.01" x="1075"/>
  </g>
  <circle id="svg_4" cy="360" cx="575" r="2" fill="#fff"/>
  <rect id="svg_25" height="722.01" width="78" y="-1.0058" x="145" stroke-width="0" fill="#59b200"/>
  <circle id="svg_5" cy="360" cx="160" r="2" fill="#fff"/>
  <rect id="svg_31" height="722.01" width="78" y="-1.0058" x="927" stroke-width="0" fill="#59b200"/>
  <circle id="svg_6" cy="360" cx="990" r="2" fill="#fff"/>
  <g stroke-width="2">
   <g fill-opacity="0">
    <path id="svg_7" d="m50 324.4h-10v72.2h10v-72.2z"/>
    <path id="svg_8" d="m1100 324.4h10v72.2h-10v-72.2z"/>
    <path id="svg_9" d="m50 269.4h55v182.2h-55v-182.2z"/>
    <path id="svg_10" d="m1100 269.4h-55v182.2h55v-182.2z"/>
    <path id="svg_11" fill="#fff" d="m50 160.4h165v402.2h-165v-402.2z"/>
    <path id="svg_12" d="m1100 159.4h-165v402.2h165v-402.2z"/>
   </g>
   <g fill="none">
    <path id="svg_13" d="m215 286.88a91.5 91.5 0 0 1 0 146.25v-146.25z"/>
    <path id="svg_14" d="m935 286.88a91.5 91.5 0 0 0 0 146.25v-146.25z"/>
   </g>
   <g fill-opacity="0">
    <path id="svg_15" d="m50 30a10 10 0 0 0 10 -10h-10v10z"/>
    <path id="svg_16" d="m60 700a10 10 0 0 0 -10 -10v10h10z"/>
   </g>
  </g>
  <rect id="svg_30" height="722.01" width="78" y="-1.0058" x="766" stroke-width="0" fill="#59b200"/>
  <g stroke-width="2">
   <path id="svg_2" fill="none" d="m575 20h-525v680h1050v-680h-525v680-680z"/>
   <g fill-opacity="0">
    <path id="svg_17" d="m1100 690a10 10 0 0 0 -10 10h10v-10z"/>
    <path id="svg_18" d="m1090 20a10 10 0 0 0 10 10v-10h-10z"/>
   </g>
   <g fill="none">
    <line id="svg_33" y1="20" x2="1097" x1="50" y2="20"/>
    <line id="svg_35" y1="20" x2="50" x1="49" y2="391"/>
   </g>
  </g>
 </g>
</svg>
